<svg width="48" height="48" viewBox="0 0 48 48" fill="none" xmlns="http://www.w3.org/2000/svg">
<circle cx="24" cy="24" r="22.5" fill="#010101" fill-opacity="0.5" stroke="#E4BB13" stroke-width="3"/>
<g clip-path="url(#clip0_1124_591)">
<path d="M23.6441 11.9038V13.1779M12.1774 24.6445H10.9033M15.3626 16.3631L14.598 15.5985M31.9255 16.3631L32.6903 15.5985M36.3848 24.6445H35.1107M21.0959 26.5557H26.1922M23.6441 26.5557V32.926M28.1033 30.8543C30.0324 29.4666 31.2885 27.2023 31.2885 24.6445C31.2885 20.4226 27.866 17.0001 23.6441 17.0001C19.4222 17.0001 15.9996 20.4226 15.9996 24.6445C15.9996 27.2023 17.2558 29.4666 19.1848 30.8543V33.3083C19.1848 34.7353 19.1848 35.4489 19.4625 35.994C19.7068 36.4734 20.0967 36.8633 20.5761 37.1076C21.1212 37.3853 21.8347 37.3853 23.2618 37.3853H24.0263C25.4534 37.3853 26.1669 37.3853 26.712 37.1076C27.1915 36.8633 27.5813 36.4734 27.8256 35.994C28.1033 35.4489 28.1033 34.7354 28.1033 33.3083V30.8543Z" stroke="#E4BB13" stroke-width="2" stroke-linecap="round" stroke-linejoin="round"/>
</g>
<defs>
<clipPath id="clip0_1124_591">
<rect width="29" height="29" fill="white" transform="translate(9 10)"/>
</clipPath>
</defs>
</svg>
